<svg xmlns="http://www.w3.org/2000/svg" xmlns:xlink="http://www.w3.org/1999/xlink" width="1080" zoomAndPan="magnify" viewBox="0 0 810 809.999993" height="1080" preserveAspectRatio="xMidYMid meet" version="1.0"><defs><clipPath id="a0ed15aad9"><path d="M 42.28125 42.28125 L 769.03125 42.28125 L 769.03125 769.03125 L 42.28125 769.03125 Z M 42.28125 42.28125 " clip-rule="nonzero"/></clipPath></defs><rect x="-81" width="972" fill="#ffffff" y="-80.999999" height="971.999992" fill-opacity="1"/><rect x="-81" width="972" fill="#ffffff" y="-80.999999" height="971.999992" fill-opacity="1"/><rect x="-81" width="972" fill="#ffffff" y="-80.999999" height="971.999992" fill-opacity="1"/><g clip-path="url(#a0ed15aad9)"><path fill="#242424" d="M 702.964844 42.28125 L 108.351562 42.28125 C 71.847656 42.28125 42.28125 71.847656 42.28125 108.351562 L 42.28125 702.964844 C 42.28125 739.464844 71.847656 769.03125 108.351562 769.03125 L 702.964844 769.03125 C 739.464844 769.03125 769.03125 739.464844 769.03125 702.964844 L 769.03125 108.351562 C 769.03125 71.847656 739.433594 42.28125 702.964844 42.28125 Z M 659.65625 355.246094 C 655.359375 355.644531 651.035156 355.90625 646.671875 355.90625 C 597.289062 355.90625 553.878906 330.535156 528.609375 292.117188 C 528.609375 392.839844 528.609375 507.46875 528.609375 509.382812 C 528.609375 598.082031 456.695312 669.960938 368.03125 669.960938 C 279.367188 669.929688 207.453125 598.015625 207.453125 509.351562 C 207.453125 420.652344 279.367188 348.773438 368.03125 348.773438 C 371.398438 348.773438 374.671875 349.070312 377.941406 349.265625 L 377.941406 428.417969 C 374.636719 428.019531 371.433594 427.425781 368.03125 427.425781 C 322.773438 427.425781 286.074219 464.125 286.074219 509.382812 C 286.074219 554.640625 322.742188 591.339844 368.03125 591.339844 C 413.320312 591.339844 453.292969 555.664062 453.292969 510.40625 C 453.292969 508.589844 454.085938 141.417969 454.085938 141.417969 L 529.699219 141.417969 C 536.800781 209.039062 591.40625 262.421875 659.65625 267.308594 Z M 659.65625 355.246094 " fill-opacity="1" fill-rule="nonzero"/></g></svg>